<?xml version="1.0" encoding="UTF-8"?><svg id="world-flexible-system" xmlns="http://www.w3.org/2000/svg" viewBox="0 0 300 300"><defs><style>.cls-1,.cls-2,.cls-3,.cls-4,.cls-5,.cls-6,.cls-7,.cls-8,.cls-9,.cls-10,.cls-11,.cls-12{fill:none;}.cls-1,.cls-2,.cls-3,.cls-4,.cls-5,.cls-13,.cls-7,.cls-8,.cls-9,.cls-14,.cls-15,.cls-16{stroke-linecap:round;}.cls-1,.cls-2,.cls-4,.cls-17,.cls-5,.cls-18,.cls-19,.cls-14,.cls-16{stroke-width:1.5px;}.cls-1,.cls-4,.cls-5,.cls-7,.cls-8,.cls-9,.cls-20,.cls-10,.cls-11,.cls-12,.cls-18,.cls-19,.cls-21,.cls-16{stroke-miterlimit:10;}.cls-1,.cls-11,.cls-16{stroke:#fff;}.cls-2,.cls-3,.cls-4,.cls-22,.cls-23,.cls-17,.cls-5,.cls-6,.cls-13,.cls-7,.cls-8,.cls-20,.cls-12,.cls-18,.cls-19,.cls-14,.cls-15,.cls-21{stroke:#7836b2;}.cls-2,.cls-3,.cls-22,.cls-23,.cls-17,.cls-6,.cls-13,.cls-14,.cls-15{stroke-linejoin:round;}.cls-3,.cls-22,.cls-23,.cls-6{stroke-width:1.49px;}.cls-24,.cls-22,.cls-20,.cls-19,.cls-14,.cls-15,.cls-21{fill:#fff;}.cls-25,.cls-23,.cls-17,.cls-13,.cls-18,.cls-26,.cls-16{fill:#bb9ad8;}.cls-27,.cls-28{fill:#7836b2;}.cls-5,.cls-28,.cls-26{fill-rule:evenodd;}.cls-13{stroke-width:2px;}.cls-7{stroke-width:.41px;}.cls-8,.cls-9{stroke-width:.5px;}.cls-9,.cls-10{stroke:#bb9ad8;}.cls-15{stroke-width:1.5px;}.cls-21{stroke-width:1.27px;}.cls-29{fill:#e3e0e0;opacity:.5;}</style></defs><circle class="cls-29" cx="147.7" cy="154.39" r="105.61"/><path class="cls-24" d="m107.1,107.5h-5.96c-1.13,0-2.06-.93-2.06-2.06s.93-2.06,2.06-2.06h10.8c1.28-.2,2.39-1.11,2.63-2.4.35-1.89-1.12-3.56-2.95-3.56h-39.94c-1.13,0-2.06-.93-2.06-2.06s.93-2.06,2.06-2.06h.48c.15-.04.31-.06.47-.06h18.52c1.05,0,1.91-.76,1.91-1.69,0-.82.67-1.51,1.55-1.66h8.1c1.65,0,3-1.35,3-3s-1.35-3-3-3H19.3c-1.65,0-3,1.35-3,3s1.35,3,3,3h8.09c.88.15,1.55.84,1.55,1.66,0,.93.86,1.69,1.91,1.69l21.84.06c1.13,0,2.06.93,2.06,2.06s-.93,2.06-2.06,2.06h-4.08c-1.48,0-2.86.99-3.13,2.44-.35,1.89,1.12,3.56,2.95,3.56h16.17c.51.06,1.15.03,1.75.12h7.97c1.13,0,2.06.93,2.06,2.06s-.93,2.06-2.06,2.06h-11.13c-.9.39-1.61,1.16-1.79,2.15-.35,1.89,1.12,3.56,2.95,3.56h41.77c1.48,0,2.86-.99,3.13-2.44.29-1.6-.71-3.03-2.14-3.43Z"/><path class="cls-25" d="m119.16,152.33h-19.94s-.03-.03-.04-.04h-.03c-1.13,0-2.06-.93-2.06-2.06v-1.02c0-1.13.93-2.06,2.06-2.06h1.44s.05,0,.08,0h24.83c1.41,0,2.56-1.02,2.56-2.27s1.15-2.27,2.56-2.27h9.19c.74,0,1.42-.3,1.9-.79.49-.49.79-1.16.79-1.91,0-1.48-1.21-2.7-2.7-2.7H30.34c-1.48,0-2.7,1.21-2.7,2.7,0,.74.3,1.42.79,1.91.49.49,1.16.79,1.9.79h9.19c1.41,0,2.56,1.02,2.56,2.27s1.15,2.27,2.56,2.27h36.35c1.13,0,2.06.94,2.06,2.07v1.02c0,1.13-.93,2.06-2.06,2.06l-55.33.04c-2.34,0-4.25,1.91-4.25,4.25s1.91,4.25,4.25,4.25h93.5c2.34,0,4.25-1.91,4.25-4.25s-1.91-4.25-4.25-4.25Z"/><path class="cls-24" d="m271.21,171.79l-3.63-.12c-1.56,0-2.83-1.28-2.83-2.83v-.22c0-1.56,1.28-2.83,2.83-2.83h9.37c1.24-.22,2.3-1.13,2.53-2.39.35-1.89-1.12-3.56-2.95-3.56h-63.02c-1.48,0-2.86.99-3.13,2.44-.31,1.71.86,3.22,2.44,3.5h24.62c1.56,0,2.83,1.28,2.83,2.83v.22c0,1.56-1.28,2.83-2.83,2.83l-8.01.12c-1.48,0-2.86.99-3.13,2.44-.35,1.89,1.12,3.56,2.95,3.56h41.77c1.48,0,2.86-.99,3.13-2.44.35-1.89-1.12-3.56-2.95-3.56Z"/><rect class="cls-24" x="199.26" y="172.12" width="23.51" height="5.67" rx="2.83" ry="2.83"/><circle class="cls-9" cx="259.89" cy="125.81" r="1.47"/><circle class="cls-9" cx="233.71" cy="81.46" r="1.47"/><circle class="cls-10" cx="244.71" cy="97.03" r="1.84"/><circle class="cls-11" cx="213.37" cy="122.37" r="1.84"/><circle class="cls-12" cx="240" cy="116.33" r="1.2"/><circle class="cls-25" cx="246.3" cy="136.91" r="1.2"/><circle class="cls-27" cx="265.43" cy="107.1" r="1.2"/><circle class="cls-24" cx="229.53" cy="131" r="1.2"/><circle class="cls-7" cx="126.29" cy="60.37" r="1.47"/><circle class="cls-10" cx="84.78" cy="56.92" r="1.84"/><circle class="cls-12" cx="80.07" cy="76.23" r="1.2"/><circle class="cls-25" cx="149.33" cy="83.33" r="1.2"/><circle class="cls-27" cx="105.5" cy="67" r="1.2"/><line class="cls-8" x1="61.23" y1="56.92" x2="61.23" y2="59.66"/><line class="cls-8" x1="62.6" y1="58.29" x2="59.86" y2="58.29"/><circle class="cls-11" cx="143.87" cy="66.62" r="1.84"/><circle class="cls-24" cx="126" cy="76" r="1.2"/><line class="cls-8" x1="221.16" y1="97.03" x2="221.16" y2="99.76"/><line class="cls-8" x1="222.53" y1="98.39" x2="219.79" y2="98.39"/><line class="cls-9" x1="274" y1="119" x2="274" y2="121.73"/><line class="cls-9" x1="275.37" y1="120.37" x2="272.63" y2="120.37"/><circle class="cls-9" cx="79.63" cy="232.04" r="1.47"/><circle class="cls-10" cx="109.77" cy="244.31" r="1.84"/><circle class="cls-25" cx="94.27" cy="230.42" r="1.2"/><circle class="cls-25" cx="92.33" cy="244.67" r="4.02"/><circle class="cls-27" cx="114.1" cy="230.25" r="1.2"/><line class="cls-9" x1="73.97" y1="245.69" x2="72.21" y2="243.6"/><line class="cls-9" x1="72.05" y1="245.52" x2="74.14" y2="243.76"/><rect class="cls-27" x="196" y="189.62" width="43.06" height="30.12"/><path class="cls-13" d="m200.34,95.93h-9.58s-.58-6.93-.58-6.93c-1.83-.53-3.57-1.29-5.2-2.29l-5.12,4.33-6.77-6.77,4.49-5.31c-.92-1.66-1.61-3.44-2.05-5.3l-6.69-.56v-9.58s6.93-.58,6.93-.58c.53-1.83,1.29-3.57,2.29-5.2l-4.33-5.12,6.78-6.77,5.31,4.49c1.66-.92,3.44-1.61,5.3-2.05l.56-6.68h9.58l.58,6.93c1.83.53,3.57,1.29,5.2,2.29l5.12-4.33,6.77,6.77-4.49,5.31c.92,1.67,1.61,3.44,2.05,5.3l6.69.56v9.58s-6.93.58-6.93.58c-.53,1.83-1.29,3.58-2.29,5.2l4.33,5.12-6.77,6.77-5.31-4.49c-1.67.92-3.44,1.61-5.3,2.05l-.56,6.69Z"/><circle class="cls-24" cx="196.01" cy="68.77" r="14.42"/><polygon class="cls-27" points="188.66 76.04 179.7 68.93 188.66 61.83 190.22 63.79 183.73 68.93 190.22 74.07 188.66 76.04"/><polygon class="cls-27" points="203.36 76.04 201.8 74.07 208.28 68.93 201.8 63.79 203.36 61.83 212.32 68.93 203.36 76.04"/><rect class="cls-27" x="186.3" y="67.68" width="19.92" height="2.51" transform="translate(75.18 238.07) rotate(-73.76)"/><circle class="cls-24" cx="230.62" cy="139.15" r="3.02"/><path class="cls-26" d="m208.7,139.26h42.59v21.96h-17.9c-.72,1.26-1.97,2.1-3.39,2.1s-2.68-.84-3.4-2.1h-17.9v-21.96Z"/><path class="cls-28" d="m208.7,138.56h42.59c.39,0,.7.32.7.7v21.96c0,.39-.32.7-.7.7h-17.51c-.4.59-.91,1.08-1.49,1.44-.68.42-1.47.66-2.3.66s-1.61-.24-2.3-.66c-.58-.36-1.09-.85-1.49-1.44h-17.51c-.39,0-.7-.32-.7-.7v-21.96c0-.39.32-.7.7-.7h0Zm41.88,1.41h-41.18v20.55h17.19c.24,0,.48.13.61.36.31.54.73.99,1.23,1.29.46.29.99.45,1.56.45s1.1-.16,1.56-.45c.48-.3.89-.73,1.2-1.25.11-.24.36-.4.63-.4h17.2v-20.55Z"/><path class="cls-28" d="m226.69,138.56h6.61c.39,0,.7.32.7.7v22.11c0,.15-.05.29-.13.41-.43.68-1,1.24-1.66,1.63-.66.39-1.42.61-2.21.61s-1.55-.22-2.21-.61c-.68-.4-1.26-.97-1.69-1.67-.07-.12-.11-.24-.11-.37h0v-22.11c0-.39.32-.7.7-.7h0Zm5.9,1.41h-5.2v21.2c.3.43.67.79,1.1,1.04.45.26.96.41,1.5.41s1.05-.15,1.5-.42c.43-.25.8-.61,1.1-1.04v-21.2Z"/><path class="cls-26" d="m211.27,136.14h13.51c2.97,0,5.4,1.96,5.4,4.36v20.69c0,.28-.03.55-.1.82-.48-2.01-2.68-3.54-5.3-3.54h-13.51v-22.33Z"/><path class="cls-28" d="m211.27,135.43h13.51c1.65,0,3.16.55,4.26,1.44,1.14.92,1.85,2.2,1.85,3.62v20.69c0,.16-.01.33-.03.49-.02.17-.05.33-.09.49-.09.38-.47.61-.85.52-.27-.06-.47-.28-.53-.53-.2-.83-.77-1.57-1.58-2.11-.82-.55-1.88-.88-3.04-.88h-13.51c-.39,0-.7-.32-.7-.7v-22.33c0-.39.32-.7.7-.7h0Zm13.51,1.41h-12.8v20.92h12.8c1.44,0,2.78.42,3.82,1.12.32.21.61.45.87.71v-19.1c0-.97-.51-1.87-1.32-2.53-.86-.69-2.05-1.12-3.37-1.12h0Zm4.62,25.31v-.31c-.02.11-.02.21,0,.31Z"/><path class="cls-26" d="m249.09,136.14h-13.51c-2.97,0-5.4,1.96-5.4,4.36v20.69c0,.28.03.55.1.82.48-2.01,2.68-3.54,5.3-3.54h13.51v-22.33Z"/><path class="cls-28" d="m248.38,136.84h-12.8c-1.32,0-2.52.43-3.38,1.12-.82.66-1.32,1.55-1.32,2.53v19.1c.26-.26.55-.5.87-.71,1.05-.7,2.38-1.12,3.82-1.12h12.8v-20.92h0Zm-12.8-1.41h13.51c.39,0,.7.32.7.7v22.33c0,.39-.32.7-.7.7h-13.51c-1.16,0-2.22.33-3.04.88-.8.54-1.37,1.28-1.58,2.11-.06.26-.25.47-.53.53-.38.09-.76-.14-.85-.52-.04-.16-.07-.32-.09-.49-.02-.17-.03-.33-.03-.49v-20.69c0-1.42.71-2.7,1.85-3.62,1.1-.89,2.61-1.44,4.26-1.44Z"/><path class="cls-5" d="m215.64,140.83h9.58"/><path class="cls-5" d="m215.64,144.16h9.58"/><path class="cls-5" d="m215.64,147.5h9.58"/><path class="cls-5" d="m215.64,150.83h9.58"/><path class="cls-5" d="m215.64,154.16h9.58"/><path class="cls-5" d="m234.89,140.83h9.58"/><path class="cls-5" d="m234.89,144.16h9.58"/><path class="cls-5" d="m234.89,147.5h9.58"/><path class="cls-5" d="m234.89,150.83h9.58"/><path class="cls-5" d="m234.89,154.16h9.58"/><rect class="cls-15" x="139.79" y="132.38" width="33.67" height="86.48"/><g id="Rectangle-436"><rect class="cls-27" x="140.06" y="132.48" width="33.32" height="4.62"/></g><g id="Rectangle-436-2"><rect class="cls-27" x="140.06" y="214.48" width="33.32" height="4.62"/></g><g id="Oval-475"><circle class="cls-20" cx="142.6" cy="134.79" r=".58"/><path class="cls-20" d="m142.6,135.56c-.42,0-.77-.34-.77-.77s.34-.77.77-.77.77.34.77.77-.34.77-.77.77Zm0-1.15c-.21,0-.39.17-.39.39s.17.39.39.39.39-.17.39-.39-.17-.39-.39-.39Z"/></g><g id="Oval-476"><circle class="cls-20" cx="145.48" cy="134.79" r=".58"/><path class="cls-20" d="m145.48,135.56c-.42,0-.77-.34-.77-.77s.34-.77.77-.77.77.34.77.77-.34.77-.77.77Zm0-1.15c-.21,0-.39.17-.39.39s.17.39.39.39.39-.17.39-.39-.17-.39-.39-.39Z"/></g><g id="Oval-477"><circle class="cls-20" cx="148.37" cy="134.79" r=".58"/><path class="cls-20" d="m148.37,135.56c-.42,0-.77-.34-.77-.77s.34-.77.77-.77.77.34.77.77-.34.77-.77.77Zm0-1.15c-.21,0-.39.17-.39.39s.17.39.39.39.39-.17.39-.39-.17-.39-.39-.39Z"/></g><path class="cls-27" d="m168.7,188.58h-23.5v-17.74h23.5v17.74Zm-22.35-1.15h21.2v-15.45h-21.2v15.45Z"/><rect class="cls-27" x="156.53" y="166.29" width="1.15" height="27.31" transform="translate(-80.89 200.47) rotate(-53.81)"/><rect class="cls-27" x="143.03" y="179.14" width="27.84" height="1.15" transform="translate(-76.19 128.99) rotate(-36.59)"/><path class="cls-27" d="m156.93,210.49h-11.37v-9.78h11.37v9.78Zm-10.23-1.15h9.08v-7.49h-9.08v7.49Z"/><rect class="cls-27" x="150.73" y="199.16" width="1.15" height="13.12" transform="translate(-103.61 190.43) rotate(-50.23)"/><rect class="cls-27" x="144.55" y="205.03" width="13.38" height="1.15" transform="translate(-96.96 146.1) rotate(-40.18)"/><circle class="cls-27" cx="148.31" cy="159.89" r="2.45"/><rect class="cls-27" x="145.73" y="163.96" width="5.17" height="1.15"/><circle class="cls-27" cx="156.72" cy="159.89" r="2.45"/><rect class="cls-27" x="154.13" y="163.96" width="5.17" height="1.15"/><circle class="cls-27" cx="165.12" cy="159.89" r="2.45"/><rect class="cls-27" x="162.54" y="163.96" width="5.17" height="1.15"/><rect class="cls-27" x="145.73" y="165.88" width="5.17" height="1.15"/><rect class="cls-27" x="145.54" y="192.19" width="22.47" height="1.15"/><rect class="cls-27" x="145.54" y="194.29" width="22.47" height="1.15"/><rect class="cls-27" x="145.54" y="196.39" width="22.47" height="1.15"/><rect class="cls-27" x="158.99" y="205.05" width="9.01" height="1.15"/><rect class="cls-27" x="158.99" y="207.15" width="9.01" height="1.15"/><rect class="cls-27" x="158.99" y="209.25" width="9.01" height="1.15"/><rect class="cls-27" x="154.13" y="165.88" width="5.17" height="1.15"/><rect class="cls-27" x="162.54" y="165.88" width="5.17" height="1.15"/><rect class="cls-27" x="154.13" y="140.46" width="3.54" height="1.15"/><rect class="cls-27" x="159.89" y="140.46" width="3.54" height="1.15"/><rect class="cls-27" x="165.65" y="140.46" width="3.54" height="1.15"/><path class="cls-27" d="m165.09,153.09h-16.74v-7.29h16.74v7.29Zm-15.59-1.15h14.44v-4.99h-14.44v4.99Z"/><rect class="cls-27" x="144.17" y="139.89" width="3.92" height="2.19"/><rect class="cls-27" x="152.88" y="148.68" width="7.69" height="1.15"/><path class="cls-24" d="m197.45,127.93c0,.8.6,1.44,1.34,1.44h2.6v5.4l6.38-5.4h7.54c.74,0,1.35-.64,1.35-1.44v-16.34c0-.8-.6-1.44-1.35-1.44h-16.52c-.74,0-1.34.64-1.34,1.44v16.34Z"/><path class="cls-19" d="m200.39,134.36v-2.77c0-.66-.54-1.2-1.2-1.2h-.39c-1.3,0-2.35-1.1-2.35-2.45v-16.34c0-1.35,1.06-2.45,2.35-2.45h16.52c1.3,0,2.35,1.1,2.35,2.45v16.34c0,1.35-1.06,2.45-2.35,2.45h-6.73c-.28,0-.56.1-.78.28l-5.44,4.61c-.78.66-1.98.11-1.98-.92Z"/><polygon class="cls-27" points="211.42 119.69 207.81 121.77 204.2 123.86 204.2 119.69 204.2 115.52 207.81 117.6 211.42 119.69"/><path class="cls-27" d="m63.54,207.02c-.32-.26-.79-.21-1.05.1l-1.27,1.55c-.43.53-1.28.24-1.31-.43v-2.47c0-.16.06-.31.16-.44l3.57-4.36c.26-.32.21-.79-.1-1.05h0c-.32-.26-.79-.21-1.05.1l-1.27,1.55c-.43.53-1.28.24-1.31-.43v-3.35c0-.41-.34-.75-.75-.75s-.75.34-.75.75v3.35c-.03.67-.88.97-1.31.44l-1.27-1.55c-.26-.32-.73-.36-1.05-.1h0c-.32.26-.36.73-.1,1.05l3.57,4.36c.1.12.16.28.16.44v2.46c-.03.67-.88.97-1.31.44l-1.27-1.55c-.26-.32-.73-.36-1.05-.1h0c-.32.26-.36.73-.1,1.05l3.57,4.36c.1.13.16.28.16.44v6.06s0,.02,0,.03v.19c0,.41.33.74.74.74h0c.41,0,.74-.33.74-.74v-.18s0-.02,0-.03v-6.06c0-.16.06-.31.16-.44l3.57-4.36c.26-.32.21-.79-.1-1.05h0Z"/><path class="cls-27" d="m189.96,199.92h0c-.32-.26-.79-.21-1.05.1l-1.27,1.55c-.43.53-1.28.24-1.31-.43v-2.37c0-.16.06-.31.16-.44l3.57-4.36c.26-.32.21-.79-.1-1.05h0c-.32-.26-.79-.21-1.05.1l-1.27,1.55c-.43.53-1.28.24-1.31-.43v-3.35c0-.41-.34-.75-.75-.75s-.75.34-.75.75v3.35c-.03.67-.88.97-1.31.44l-1.27-1.55c-.26-.32-.73-.36-1.05-.1h0c-.32.26-.36.73-.1,1.05l3.57,4.36c.1.12.16.28.16.44v2.37c-.03.67-.88.97-1.31.44l-1.27-1.55c-.26-.32-.73-.36-1.05-.1h0c-.18.15-.26.36-.26.58-.03.2.02.4.16.57l3.57,4.36c.1.13.16.28.16.44v2.37c-.03.67-.88.97-1.31.44l-1.27-1.55c-.26-.32-.73-.36-1.05-.1h0c-.32.26-.36.73-.1,1.05l3.57,4.36c.1.13.16.28.16.44v6.06s0,.02,0,.03v.19c0,.41.33.74.74.74h0c.41,0,.74-.33.74-.74v-.18s0-.02,0-.03v-6.06c0-.16.06-.31.16-.44l3.57-4.36c.26-.32.21-.79-.1-1.05h0c-.32-.26-.79-.21-1.05.1l-1.27,1.55c-.43.53-1.28.24-1.31-.43v-2.37c0-.16.06-.31.16-.44l3.57-4.36c.14-.17.18-.37.16-.57,0-.22-.08-.43-.26-.58Z"/><path class="cls-27" d="m49.53,198.43l3.57-4.36c.26-.32.21-.79-.1-1.05h0c-.32-.26-.79-.21-1.05.1l-1.27,1.55c-.43.53-1.28.24-1.31-.43v-2.47c0-.16.06-.31.16-.44l3.57-4.36c.26-.32.21-.79-.1-1.05h0c-.32-.26-.79-.21-1.05.1l-1.27,1.55c-.43.53-1.28.24-1.31-.43v-3.35c0-.41-.34-.75-.75-.75s-.75.34-.75.75v3.35c-.03.67-.88.97-1.31.44l-1.27-1.55c-.26-.32-.73-.36-1.05-.1h0c-.32.26-.36.73-.1,1.05l3.57,4.36c.1.12.16.28.16.44v2.46c-.03.67-.88.97-1.31.44l-1.27-1.55c-.26-.32-.73-.36-1.05-.1h0c-.32.26-.36.73-.1,1.05l3.57,4.36c.1.13.16.28.16.44v2.27c-.03.67-.88.97-1.31.44l-1.27-1.55c-.26-.32-.73-.36-1.05-.1h0c-.32.26-.36.73-.1,1.05l3.57,4.36c.1.12.16.28.16.44v2.46c-.03.67-.88.97-1.31.44l-1.27-1.55c-.26-.32-.73-.36-1.05-.1h0c-.32.26-.36.73-.1,1.05l3.57,4.36c.1.13.16.28.16.44v6.06s0,.02,0,.03v.19c0,.41.33.74.74.74h0c.41,0,.74-.33.74-.74v-.18s0-.02,0-.03v-6.06c0-.16.06-.31.16-.44l3.57-4.36c.26-.32.21-.79-.1-1.05h0c-.32-.26-.79-.21-1.05.1l-1.27,1.55c-.43.53-1.28.24-1.31-.43v-2.47c0-.16.06-.31.16-.44l3.57-4.36c.26-.32.21-.79-.1-1.05h0c-.32-.26-.79-.21-1.05.1l-1.27,1.55c-.43.53-1.28.24-1.31-.43v-2.28c0-.16.06-.31.16-.44Z"/><path class="cls-27" d="m250.86,198.43l3.57-4.36c.26-.32.21-.79-.1-1.05h0c-.32-.26-.79-.21-1.05.1l-1.27,1.55c-.43.53-1.28.24-1.31-.43v-2.47c0-.16.06-.31.16-.44l3.57-4.36c.26-.32.21-.79-.1-1.05h0c-.32-.26-.79-.21-1.05.1l-1.27,1.55c-.43.53-1.28.24-1.31-.43v-3.35c0-.41-.34-.75-.75-.75s-.75.34-.75.75v3.35c-.03.67-.88.97-1.31.44l-1.27-1.55c-.26-.32-.73-.36-1.05-.1h0c-.32.26-.36.73-.1,1.05l3.57,4.36c.1.12.16.28.16.44v2.46c-.03.67-.88.97-1.31.44l-1.27-1.55c-.26-.32-.73-.36-1.05-.1h0c-.32.26-.36.73-.1,1.05l3.57,4.36c.1.13.16.28.16.44v2.27c-.03.67-.88.97-1.31.44l-1.27-1.55c-.26-.32-.73-.36-1.05-.1h0c-.32.26-.36.73-.1,1.05l3.57,4.36c.1.12.16.28.16.44v2.46c-.03.67-.88.97-1.31.44l-1.27-1.55c-.26-.32-.73-.36-1.05-.1h0c-.32.26-.36.73-.1,1.05l3.57,4.36c.1.13.16.28.16.44v6.06s0,.02,0,.03v.19c0,.41.33.74.74.74h0c.41,0,.74-.33.74-.74v-.18s0-.02,0-.03v-6.06c0-.16.06-.31.16-.44l3.57-4.36c.26-.32.21-.79-.1-1.05h0c-.32-.26-.79-.21-1.05.1l-1.27,1.55c-.43.53-1.28.24-1.31-.43v-2.47c0-.16.06-.31.16-.44l3.57-4.36c.26-.32.21-.79-.1-1.05h0c-.32-.26-.79-.21-1.05.1l-1.27,1.55c-.43.53-1.28.24-1.31-.43v-2.28c0-.16.06-.31.16-.44Z"/><path class="cls-14" d="m109.03,163.42v-13.68l-9.19-5.27-4.31,7.51s.6,3.73,3.93,5.43c.33.17,1.13.36,1.13,1.27v4.74h8.43Z"/><line class="cls-2" x1="100.44" y1="139.42" x2="100.44" y2="129.66"/><path class="cls-18" d="m100.42,159.46c-2.6,0-2.6-2.64-2.6-2.64v-20.34s5.24,0,5.24,0v20.34s-.03,2.64-2.63,2.64Z"/><path class="cls-27" d="m100.98,153.84c-.31.31-.81.31-1.12,0-.31-.31-.31-.81,0-1.12.31-.31.81-.31,1.12,0,.31.31.31.81,0,1.12Z"/><path class="cls-17" d="m87.29,118.97c0-7.26,5.89-13.14,13.14-13.14,7.26,0,13.15,5.88,13.15,13.14,0,7.26-5.89,13.14-13.15,13.14-7.26,0-13.15-5.88-13.14-13.14Z"/><path class="cls-24" d="m90.52,118.97c0-5.47,4.43-9.9,9.9-9.9,5.47,0,9.9,4.43,9.9,9.9s-4.43,9.9-9.9,9.9c-5.47,0-9.9-4.43-9.9-9.9Z"/><path class="cls-14" d="m95.86,143.8c-.79,0-1.43-.63-1.43-1.41h0c0-.79.63-1.43,1.41-1.43h.74c.79,0,1.43.63,1.43,1.41h0c0,.79-.63,1.43-1.42,1.43h-.74Z"/><path class="cls-14" d="m95.91,152.33c-.79,0-1.43-.63-1.43-1.42h0c0-.79.63-1.43,1.42-1.43h1.2c.78,0,1.43.62,1.43,1.41h0c0,.79-.63,1.43-1.41,1.43h-1.2Z"/><path class="cls-14" d="m95.3,146.64c-.79,0-1.43-.63-1.43-1.42h0c0-.79.63-1.43,1.41-1.43h2.69c.79,0,1.43.64,1.43,1.42h0c0,.79-.63,1.43-1.42,1.43h-2.69Z"/><path class="cls-14" d="m95.47,149.49c-.78,0-1.43-.63-1.43-1.42h0c0-.79.63-1.43,1.42-1.43h2.33c.79-.02,1.43.62,1.43,1.4h0c0,.79-.63,1.43-1.42,1.43h-2.33Z"/><path class="cls-24" d="m105.87,140.95h-4.01s-1.33,3.31,3.42,3.31v3.05s-3.89,1.34-2.98,5.54c.35,1.6,1.2,2.65,2.19,3.35l4.54,1.33v-11.51c0-2.61,0-5.07-3.15-5.07Z"/><path class="cls-2" d="m109.03,157.52v-11.51c0-2.61,0-5.07-3.15-5.07h-4.01s-1.33,3.31,3.42,3.31v3.05s-3.89,1.34-2.98,5.54c.35,1.6,1.2,2.65,2.19,3.35"/><rect class="cls-23" x="88.15" y="173" width="30.83" height="46.08"/><rect class="cls-23" x="91.44" y="163.5" width="24.25" height="9.25"/><circle class="cls-25" cx="100.13" cy="119.25" r="3.43"/><path class="cls-27" d="m108.07,118.93c-1.39-2.28-4.47-3.75-7.83-3.75s-6.44,1.47-7.83,3.75c-.08.13-.08.29,0,.43,1.39,2.28,4.47,3.75,7.83,3.75s6.44-1.47,7.83-3.75c.08-.13.08-.29,0-.43Zm-14.84.21c.87-1.28,2.38-2.24,4.16-2.75-.69.71-1.12,1.68-1.12,2.75s.43,2.04,1.12,2.75c-1.78-.51-3.29-1.47-4.16-2.75Zm7,3.15c-1.74,0-3.15-1.41-3.15-3.15s1.41-3.15,3.15-3.15,3.15,1.41,3.15,3.15-1.41,3.15-3.15,3.15Zm2.84-.4c.69-.71,1.12-1.68,1.12-2.75s-.43-2.03-1.12-2.75c1.78.51,3.29,1.47,4.16,2.75-.87,1.28-2.37,2.24-4.16,2.75Z"/><path class="cls-27" d="m100.23,116.77c-.23,0-.47.04-.73.12-.15.05-.25.17-.28.32-.03.15.04.3.16.39.1.07.25.22.25.46,0,.32-.26.59-.58.59-.22,0-.37-.13-.43-.21-.1-.11-.26-.17-.41-.13-.15.04-.26.15-.3.3-.04.18-.06.35-.06.52,0,1.31,1.06,2.37,2.37,2.37s2.37-1.06,2.37-2.37-1.06-2.37-2.37-2.37Z"/><path class="cls-24" d="m100.23,120.71c-.77,0-1.41-.56-1.53-1.29.12.03.24.05.36.05.77,0,1.4-.63,1.4-1.4,0-.17-.03-.33-.09-.48.8.07,1.43.74,1.43,1.55,0,.86-.7,1.56-1.56,1.56Z"/><rect class="cls-21" x="92.83" y="181.67" width="5.66" height="5.66"/><rect class="cls-21" x="100.75" y="189.59" width="5.66" height="5.66"/><rect class="cls-21" x="108.68" y="197.51" width="5.66" height="5.66"/><circle class="cls-27" cx="97.23" cy="168" r="1.5"/><circle class="cls-27" cx="103.56" cy="168" r="1.5"/><circle class="cls-27" cx="109.9" cy="168" r="1.5"/><path class="cls-23" d="m119.05,201.25v17.85h5.49v-6.43c0-2.57,2.1-4.67,4.67-4.67s4.67,2.1,4.67,4.67v6.43h5.49v-17.85h-20.31Z"/><line class="cls-23" x1="129.21" y1="201" x2="129.21" y2="188.83"/><rect class="cls-22" x="124.04" y="177.77" width="10.16" height="10.16" transform="translate(167.11 -37.75) rotate(45)"/><path class="cls-27" d="m128.86,186.46c-.08,0-.16-.03-.21-.09l-1.16-1.16c-.08-.08-.11-.18-.08-.29.03-.1.1-.18.21-.21.24-.07.3-.13.3-.13.08-.08.12-.19.12-.3s-.04-.22-.12-.3c-.16-.16-.44-.16-.6,0,0,0-.06.07-.13.3-.03.1-.11.18-.21.21-.11.03-.21,0-.29-.08l-1.16-1.16c-.12-.12-.12-.31,0-.42l1.1-1.1s-.08-.06-.11-.09c-.19-.19-.3-.45-.3-.73s.11-.53.3-.73c.39-.39,1.06-.39,1.45,0,.03.03.06.07.09.11l1.1-1.1c.12-.12.31-.12.42,0l1.16,1.16c.08.08.11.18.08.29-.03.1-.1.18-.21.21-.24.07-.3.12-.3.13-.17.17-.17.44,0,.6.16.16.44.16.6,0,0,0,.06-.06.13-.3.03-.1.11-.18.21-.21.1-.03.21,0,.29.08l1.16,1.16c.12.12.12.31,0,.42l-1.1,1.1s.08.06.11.09c.2.2.3.45.3.73s-.11.53-.3.73c-.39.39-1.06.39-1.45,0-.03-.03-.06-.07-.09-.11l-1.1,1.1c-.06.06-.13.09-.21.09h0Z"/><polyline class="cls-2" points="195.81 218.44 195.81 182.81 239.06 182.81 239.06 218.44"/><line class="cls-2" x1="196" y1="189.62" x2="238.67" y2="189.62"/><circle class="cls-25" cx="205.68" cy="198.06" r="4.55"/><polygon class="cls-24" points="203.36 200.36 200.54 198.11 203.36 195.87 203.86 196.49 201.81 198.11 203.86 199.73 203.36 200.36"/><polygon class="cls-24" points="208 200.36 207.51 199.73 209.56 198.11 207.51 196.49 208 195.87 210.83 198.11 208 200.36"/><rect class="cls-24" x="202.62" y="197.72" width="6.29" height=".79" transform="translate(-42 340.24) rotate(-73.76)"/><line class="cls-16" x1="213.67" y1="197" x2="233.67" y2="197"/><line class="cls-16" x1="213.67" y1="201.33" x2="233.67" y2="201.33"/><line class="cls-16" x1="200.83" y1="205.67" x2="233.67" y2="205.67"/><line class="cls-16" x1="200.83" y1="210.17" x2="233.67" y2="210.17"/><circle class="cls-27" cx="200" cy="186.17" r="1.17"/><circle class="cls-27" cx="204" cy="186.17" r="1.17"/><circle class="cls-27" cx="208" cy="186.17" r="1.17"/><line class="cls-3" x1="102.17" y1="182.33" x2="114.83" y2="182.33"/><line class="cls-3" x1="102.17" y1="185.83" x2="114.83" y2="185.83"/><line class="cls-3" x1="91.83" y1="198.67" x2="104.5" y2="198.67"/><line class="cls-3" x1="91.83" y1="202.17" x2="104.5" y2="202.17"/><line class="cls-4" x1="178.67" y1="229.33" x2="240" y2="229.33"/><line class="cls-4" x1="161.33" y1="237" x2="203.67" y2="237"/><line class="cls-4" x1="197.67" y1="243.67" x2="220" y2="243.67"/><path class="cls-18" d="m181.52,156.25h21.09c.41,0,.74-.33.74-.74v-15.46c0-.41-.33-.74-.74-.74h-10.79c-.2,0-.39-.08-.52-.22l-3.91-3.91c-.47-.47-1.27-.14-1.27.52v2.86c0,.41-.33.74-.74.74h-3.86c-.41,0-.74.33-.74.74v15.46c0,.41.33.74.74.74Z"/><line class="cls-1" x1="198.17" y1="149.75" x2="185.97" y2="149.75"/><line class="cls-1" x1="198.17" y1="145.76" x2="185.97" y2="145.76"/><polyline class="cls-6" points="113.58 118.97 122.88 118.97 122.88 109"/><path class="cls-27" d="m137.87,127.37h1.3s0-12.05,0-12.05h3.75c1.89,0,3.43-1.54,3.43-3.43v-3.42h1.75c.23,0,.45-.12.56-.33.12-.2.12-.45,0-.65l-3.24-5.61c0-.1,0-.2,0-.3,0-2.93-1.14-5.68-3.21-7.75l-.92.92c1.83,1.83,2.83,4.25,2.83,6.83,0,.15,0,.29-.01.44,0,.12.02.25.09.35l2.77,4.8h-1.27c-.36,0-.65.29-.65.65v4.07c0,1.17-.96,2.13-2.13,2.13h-4.4c-.36,0-.65.29-.65.65v12.7Z"/><path class="cls-24" d="m130.15,87.16c5.66,0,10.25,4.59,10.25,10.25,0,2.41-.84,4.63-2.23,6.38l.6,2.24-2.25-.6c-1.75,1.39-3.97,2.23-6.38,2.23-5.66,0-10.25-4.59-10.25-10.25s4.59-10.25,10.25-10.25Z"/><path class="cls-27" d="m119.25,97.41c0-6.01,4.89-10.9,10.9-10.9,6.01,0,10.9,4.89,10.9,10.9,0,2.38-.75,4.63-2.17,6.52l.81,3.02-3.02-.81c-1.89,1.42-4.14,2.17-6.52,2.17-6.01,0-10.9-4.89-10.9-10.9Zm18.6,7.7l-.39-1.47.2-.26c1.37-1.72,2.09-3.78,2.09-5.97,0-5.29-4.31-9.6-9.6-9.6s-9.6,4.31-9.6,9.6,4.31,9.6,9.6,9.6c2.19,0,4.26-.72,5.97-2.09l.26-.2,1.47.39Z"/><circle class="cls-25" cx="130.15" cy="97.41" r="8.3"/><circle class="cls-24" cx="130.12" cy="95.14" r="2.77"/><path class="cls-27" d="m133.09,101.48c.23,0,.41-.19.41-.41s-.19-.41-.41-.41h-.57c.06-.37.16-.76.37-1.04,1.74-2.24,1.85-4.38,1.85-4.53,0-2.56-2.07-4.63-4.63-4.63s-4.63,2.07-4.63,4.63c0,.15.11,2.29,1.85,4.53.21.28.32.67.37,1.04h-.65c-.23,0-.41.19-.41.41s.19.41.41.41h.54v.57h-.54c-.23,0-.41.19-.41.41s.19.41.41.41h6.02c.23,0,.41-.19.41-.41s-.19-.41-.41-.41h-.64v-.57h.64Zm-6.76-6.4c0-2.09,1.7-3.79,3.79-3.79s3.79,1.7,3.79,3.78c0,.02-.06,1.95-1.68,4.03h0s0,.01,0,.01c-.21.28-.37.64-.47,1.07h-.41l.45-3.84c.03-.22-.14-.43-.36-.46-.22-.03-.43.14-.46.36l-.46,3.94h-.86l-.38-3.94c-.02-.23-.22-.39-.45-.37-.23.02-.39.22-.37.45l.37,3.86h-.36c-.1-.43-.25-.79-.46-1.07h0s0-.01,0-.01c-1.62-2.08-1.68-4.01-1.68-4.02Zm5.29,6.96h-3.17v-.57h3.17v.57Z"/><path class="cls-27" d="m132.16,103.43h-4.07c-.23,0-.41.19-.41.41s.19.41.41.41h4.07c.23,0,.41-.19.41-.41s-.19-.41-.41-.41Z"/><path class="cls-4" d="m64.61,219.33c0-4.42,3.58-8,8-8s8,3.58,8,8"/><path class="cls-4" d="m38.11,219.33h26.5"/><path class="cls-4" d="m80.61,219.33h176.64"/></svg>