<svg width="496" height="441" viewBox="0 0 496 441" fill="none" xmlns="http://www.w3.org/2000/svg">
<g clip-path="url(#clip0_326_20723)">
<path fill-rule="evenodd" clip-rule="evenodd" d="M32.7487 337.509C30.7203 335.841 29.0767 333.856 27.8416 331.542C27.5946 331.081 27.0198 330.906 26.5542 331.153C26.0935 331.4 25.9177 331.975 26.1647 332.44C27.5233 334.972 29.319 337.148 31.5422 338.977C31.9459 339.309 32.5492 339.252 32.8817 338.848C33.2143 338.44 33.1525 337.841 32.7487 337.509Z" fill="#917AEB"/>
<path fill-rule="evenodd" clip-rule="evenodd" d="M31.6679 331.015C31.7724 332.934 31.8675 334.853 31.9862 336.772C32.0195 337.295 32.4708 337.694 32.9933 337.661C33.5159 337.628 33.9149 337.176 33.8816 336.654C33.7629 334.739 33.6678 332.825 33.5633 330.906C33.5348 330.385 33.0836 329.983 32.561 330.013C32.0385 330.042 31.6347 330.491 31.6679 331.015Z" fill="#917AEB"/>
<path fill-rule="evenodd" clip-rule="evenodd" d="M38.7202 331.404C37.5041 333.238 36.1266 334.929 34.7394 336.639C34.4069 337.048 34.4686 337.647 34.8772 337.974C35.2857 338.307 35.8843 338.245 36.2121 337.837C37.6372 336.084 39.0528 334.34 40.3069 332.454C40.5967 332.017 40.4731 331.428 40.0361 331.138C39.6038 330.849 39.01 330.967 38.7202 331.404Z" fill="#917AEB"/>
<path fill-rule="evenodd" clip-rule="evenodd" d="M43.4317 338.221C40.135 338.369 36.6339 338.373 33.3371 338.164C32.8146 338.136 32.3633 338.53 32.3301 339.057C32.2968 339.58 32.6958 340.031 33.2184 340.064C36.5817 340.273 40.154 340.269 43.5173 340.121C44.0398 340.098 44.4483 339.651 44.4246 339.129C44.4008 338.606 43.9543 338.198 43.4317 338.221Z" fill="#917AEB"/>
<path fill-rule="evenodd" clip-rule="evenodd" d="M31.5402 338.825C33.5733 341.314 35.6778 343.755 37.5637 346.359C37.8725 346.781 38.4663 346.876 38.8938 346.568C39.3166 346.259 39.4116 345.665 39.1028 345.242C37.1932 342.611 35.065 340.14 33.0081 337.623C32.6756 337.219 32.077 337.157 31.6732 337.49C31.2647 337.822 31.2076 338.421 31.5402 338.825Z" fill="#917AEB"/>
<path fill-rule="evenodd" clip-rule="evenodd" d="M32.1556 339.547C32.6876 342.141 32.8349 344.62 32.8729 347.247C32.8776 347.77 33.3099 348.188 33.8325 348.183C34.3598 348.174 34.7778 347.746 34.7683 347.219C34.7303 344.468 34.5735 341.879 34.0177 339.162C33.9085 338.649 33.4097 338.316 32.8919 338.426C32.3788 338.53 32.0463 339.034 32.1556 339.547Z" fill="#917AEB"/>
<path fill-rule="evenodd" clip-rule="evenodd" d="M32.2416 339.338C30.7025 342.416 29.9092 345.836 28.2608 348.848C28.009 349.304 28.18 349.884 28.6408 350.136C29.1016 350.387 29.6764 350.216 29.9282 349.76C31.5861 346.729 32.3888 343.29 33.9422 340.188C34.175 339.718 33.985 339.148 33.5194 338.91C33.0491 338.678 32.4791 338.868 32.2416 339.338Z" fill="#917AEB"/>
<path fill-rule="evenodd" clip-rule="evenodd" d="M33.0892 338.639C30.0252 339.181 26.966 339.428 23.883 339.794C23.3604 339.855 22.9899 340.326 23.0516 340.848C23.1134 341.371 23.5837 341.741 24.1063 341.68C27.2225 341.314 30.3198 341.057 33.4218 340.511C33.9348 340.416 34.2816 339.922 34.1914 339.409C34.0964 338.891 33.607 338.544 33.0892 338.639Z" fill="#917AEB"/>
<path fill-rule="evenodd" clip-rule="evenodd" d="M35.2215 337.195C34.5897 337.167 33.9912 337.124 33.3736 337.034C32.8511 336.958 32.3713 337.319 32.2953 337.837C32.2193 338.355 32.5803 338.839 33.0981 338.915C33.7821 339.015 34.4424 339.062 35.136 339.091C35.6585 339.115 36.1051 338.711 36.1241 338.184C36.1478 337.661 35.7441 337.219 35.2215 337.195Z" fill="#917AEB"/>
</g>
<path fill-rule="evenodd" clip-rule="evenodd" d="M33.9409 128.403C34.3024 127.757 34.5931 127.063 34.8038 126.317C35.5438 123.698 33.8068 120.739 31.2559 118.807C28.706 116.875 25.3943 116.009 23.1452 117.36C21.859 118.133 21.2066 119.062 20.9875 120.036C20.7697 121.005 20.9851 122.037 21.5045 123.045C22.9537 125.852 26.8117 128.481 29.0079 128.926C30.0239 129.131 31.0542 129.266 32.0915 129.338C30.1373 131.654 27.0001 133.106 23.4257 133.982C15.6574 135.887 5.79618 135.044 0.797407 133.941C0.528842 133.882 0.261129 134.054 0.19838 134.326C0.135634 134.598 0.302172 134.867 0.570737 134.926C5.66849 136.05 15.7255 136.904 23.6475 134.961C27.7399 133.957 31.2581 132.2 33.3035 129.397C41.129 129.599 49.4117 126.549 56.4475 124.021C56.7082 123.928 56.8477 123.639 56.7586 123.377C56.6689 123.116 56.3857 122.979 56.1244 123.072C49.3759 125.497 41.4643 128.448 33.9409 128.403ZM32.8038 128.373C33.2525 127.671 33.6053 126.899 33.8437 126.053C34.4844 123.786 32.8572 121.287 30.6489 119.615C29.2949 118.59 27.7077 117.874 26.2221 117.729C25.2882 117.638 24.3972 117.774 23.647 118.225C22.6624 118.816 22.1286 119.5 21.962 120.245C21.7928 120.995 21.9892 121.789 22.3924 122.568C23.7126 125.127 27.2187 127.533 29.2178 127.937C30.3969 128.176 31.594 128.316 32.8038 128.373Z" fill="#6CA78F"/>
<path d="M459.156 415.845C460.26 420.038 463.497 423.349 467.69 424.452L472.178 425.629L467.69 426.806C463.497 427.91 460.26 431.22 459.156 435.414L457.979 440.122L456.802 435.414C455.699 431.22 452.462 427.91 448.269 426.806L443.781 425.629L448.269 424.452C452.462 423.349 455.699 420.038 456.802 415.845L457.979 411.137L459.156 415.845ZM457.906 431.662C459.23 429.087 461.363 426.954 463.938 425.629C461.363 424.232 459.304 422.172 457.906 419.597C456.582 422.172 454.448 424.305 451.873 425.629C454.448 427.027 456.582 429.087 457.906 431.662Z" fill="#FF9C31"/>
<path d="M44.0015 17.0885C44.0015 20.9875 40.8382 24.1508 36.9392 24.1508C33.0402 24.1508 29.877 20.9875 29.877 17.0885C29.877 13.1896 33.0402 10.0262 36.9392 10.0262C40.7646 10.0262 44.0015 13.1896 44.0015 17.0885ZM41.5003 17.0885C41.5003 14.5873 39.4404 12.5275 36.9392 12.5275C34.438 12.5275 32.3782 14.5873 32.3782 17.0885C32.3782 19.5898 34.438 21.6496 36.9392 21.6496C39.4404 21.6496 41.5003 19.6633 41.5003 17.0885Z" fill="#3BB2F4"/>
<path d="M369.83 0.61085L356.617 13.8235L358.386 15.5921L371.598 2.37947L369.83 0.61085Z" fill="#E22D80"/>
<path d="M358.386 0.610885L356.617 2.37952L369.83 15.5921L371.598 13.8235L358.386 0.610885Z" fill="#E22D80"/>
<path fill-rule="evenodd" clip-rule="evenodd" d="M482.327 85.3112C484.668 85.432 486.529 86.6241 488.39 87.9628C494.492 92.3588 496.533 99.1795 492.351 105.882C485.849 116.276 470.703 123.079 458.958 119.939C456.357 119.247 452.836 118.638 450.255 115.259C447.854 112.117 447.954 108.382 449.054 104.924C450.175 101.379 452.335 98.1164 454.056 96.019C461.579 86.8681 476.645 78.5513 490.271 82.9359C490.551 83.0203 490.831 82.8751 490.911 82.6114C490.991 82.3477 490.851 82.065 490.591 81.9805C476.565 77.4681 461.019 85.9635 453.276 95.3811C451.135 97.9964 448.334 102.362 447.534 106.879C446.993 109.966 447.373 113.122 449.454 115.868C452.195 119.467 455.937 120.172 458.698 120.909C470.823 124.151 486.489 117.15 493.192 106.415C497.693 99.2108 495.533 91.8728 488.97 87.1477C486.969 85.6952 484.928 84.4401 482.387 84.3092C482.107 84.295 481.867 84.5079 481.867 84.7844C481.847 85.0609 482.067 85.2969 482.327 85.3112Z" fill="#7057CF"/>
<defs>
<clipPath id="clip0_326_20723">
<rect width="21.8518" height="21.8518" fill="white" transform="translate(23.0234 329.299)"/>
</clipPath>
</defs>
</svg>
