<svg width="1825" height="659" viewBox="0 0 1825 659" fill="none" xmlns="http://www.w3.org/2000/svg">
<g opacity="0.3">
<path d="M803.109 72.1711C804.32 76.7765 807.876 80.4124 812.481 81.6244L817.41 82.9171L812.481 84.2099C807.876 85.4218 804.32 89.0577 803.109 93.6632L801.816 98.8342L800.523 93.6632C799.311 89.0577 795.756 85.4218 791.151 84.2099L786.222 82.9171L791.151 81.6244C795.756 80.4124 799.311 76.7765 800.523 72.1711L801.816 67L803.109 72.1711ZM801.816 89.5425C803.27 86.7146 805.613 84.3715 808.441 82.9171C805.613 81.382 803.351 79.1196 801.816 76.2917C800.361 79.1196 798.018 81.4628 795.19 82.9171C798.018 84.4523 800.281 86.7146 801.816 89.5425Z" fill="#FF9C31"/>
<path d="M999.109 512.171C1000.32 516.777 1003.88 520.412 1008.48 521.624L1013.41 522.917L1008.48 524.21C1003.88 525.422 1000.32 529.058 999.109 533.663L997.816 538.834L996.523 533.663C995.311 529.058 991.756 525.422 987.151 524.21L982.222 522.917L987.151 521.624C991.756 520.412 995.311 516.777 996.523 512.171L997.816 507L999.109 512.171ZM997.735 529.542C999.189 526.715 1001.53 524.371 1004.36 522.917C1001.53 521.382 999.27 519.12 997.735 516.292C996.281 519.12 993.937 521.463 991.11 522.917C993.937 524.452 996.281 526.715 997.735 529.542Z" fill="#FF9C31"/>
<path d="M1824.73 579.757C1824.73 584.039 1821.26 587.513 1816.98 587.513C1812.7 587.513 1809.22 584.039 1809.22 579.757C1809.22 575.474 1812.7 572 1816.98 572C1821.18 572 1824.73 575.474 1824.73 579.757ZM1821.99 579.757C1821.99 577.009 1819.73 574.747 1816.98 574.747C1814.23 574.747 1811.97 577.009 1811.97 579.757C1811.97 582.504 1814.23 584.766 1816.98 584.766C1819.73 584.766 1821.99 582.584 1821.99 579.757Z" fill="#3BB2F4"/>
<path d="M244.735 587.758C244.735 592.04 241.261 595.514 236.978 595.514C232.696 595.514 229.222 592.04 229.222 587.758C229.222 583.476 232.696 580.001 236.978 580.001C241.261 579.921 244.735 583.395 244.735 587.758ZM241.988 587.758C241.988 585.011 239.726 582.748 236.978 582.748C234.231 582.748 231.969 585.011 231.969 587.758C231.969 590.505 234.231 592.767 236.978 592.767C239.726 592.767 241.988 590.505 241.988 587.758Z" fill="#E22D80"/>
<path d="M342.735 104.758C342.735 109.04 339.261 112.515 334.978 112.515C330.696 112.515 327.222 109.04 327.222 104.758C327.222 100.476 330.696 97.0014 334.978 97.0014C339.261 96.9206 342.735 100.395 342.735 104.758ZM339.988 104.758C339.988 102.011 337.726 99.7485 334.978 99.7485C332.231 99.7485 329.969 102.011 329.969 104.758C329.969 107.505 332.231 109.767 334.978 109.767C337.726 109.767 339.988 107.505 339.988 104.758Z" fill="#FF9C31"/>
<path d="M11.8567 338H9.10957V358.522H11.8567V338Z" fill="#FF9C31"/>
<path d="M20.7444 346.888H0.221863V349.635H20.7444V346.888Z" fill="#FF9C31"/>
<path d="M1598.73 3.79604e-05L1584.22 14.5115L1586.16 16.454L1600.68 1.94252L1598.73 3.79604e-05Z" fill="#E22D80"/>
<path d="M1586.16 4.70306e-05L1584.22 1.94254L1598.73 16.454L1600.68 14.5115L1586.16 4.70306e-05Z" fill="#E22D80"/>
<path d="M56.7339 8.0006L42.2225 22.5121L44.1649 24.4546L58.6764 9.94308L56.7339 8.0006Z" fill="#3BB2F4"/>
<path d="M44.1643 8.00004L42.2219 9.94252L56.7333 24.454L58.6758 22.5115L44.1643 8.00004Z" fill="#3BB2F4"/>
<path d="M671.736 642L657.224 656.511L659.167 658.454L673.678 643.943L671.736 642Z" fill="#3BB2F4"/>
<path d="M659.164 642.014L657.222 643.956L671.733 658.468L673.676 656.525L659.164 642.014Z" fill="#3BB2F4"/>
</g>
</svg>